<mxfile host="app.diagrams.net" modified="2020-08-27T15:15:11.910Z" agent="5.0 (Macintosh; Intel Mac OS X 10_15_6) AppleWebKit/537.36 (KHTML, like Gecko) Chrome/84.0.4147.105 Safari/537.36" etag="VBPBqc4dmwo76BgnvR_t" version="13.6.5" type="github">
  <diagram id="Z6mV5Nnc0_HFS_1a8K0W" name="Page-1">
    <mxGraphModel dx="913" dy="591" grid="1" gridSize="10" guides="1" tooltips="1" connect="1" arrows="1" fold="1" page="1" pageScale="1" pageWidth="827" pageHeight="1169" math="0" shadow="0">
      <root>
        <mxCell id="0" />
        <mxCell id="1" parent="0" />
        <mxCell id="MhKYR01eUImSHX8c-ETG-1" value="builtins" style="rounded=1;whiteSpace=wrap;html=1;" vertex="1" parent="1">
          <mxGeometry x="340" y="150" width="120" height="60" as="geometry" />
        </mxCell>
        <mxCell id="MhKYR01eUImSHX8c-ETG-2" value="global of module 1" style="rounded=1;whiteSpace=wrap;html=1;" vertex="1" parent="1">
          <mxGeometry x="130" y="240" width="120" height="60" as="geometry" />
        </mxCell>
        <mxCell id="MhKYR01eUImSHX8c-ETG-4" value="global of module 3" style="rounded=1;whiteSpace=wrap;html=1;" vertex="1" parent="1">
          <mxGeometry x="550" y="240" width="120" height="60" as="geometry" />
        </mxCell>
        <mxCell id="MhKYR01eUImSHX8c-ETG-7" value="" style="endArrow=classic;html=1;exitX=0.5;exitY=0;exitDx=0;exitDy=0;entryX=0.25;entryY=1;entryDx=0;entryDy=0;" edge="1" parent="1" source="MhKYR01eUImSHX8c-ETG-2" target="MhKYR01eUImSHX8c-ETG-1">
          <mxGeometry width="50" height="50" relative="1" as="geometry">
            <mxPoint x="390" y="330" as="sourcePoint" />
            <mxPoint x="440" y="280" as="targetPoint" />
          </mxGeometry>
        </mxCell>
        <mxCell id="MhKYR01eUImSHX8c-ETG-10" value="" style="endArrow=classic;html=1;entryX=0.75;entryY=1;entryDx=0;entryDy=0;exitX=0.5;exitY=0;exitDx=0;exitDy=0;" edge="1" parent="1" source="MhKYR01eUImSHX8c-ETG-4" target="MhKYR01eUImSHX8c-ETG-1">
          <mxGeometry width="50" height="50" relative="1" as="geometry">
            <mxPoint x="390" y="330" as="sourcePoint" />
            <mxPoint x="440" y="280" as="targetPoint" />
          </mxGeometry>
        </mxCell>
        <mxCell id="MhKYR01eUImSHX8c-ETG-19" value="global of main()" style="swimlane;fontStyle=0;childLayout=stackLayout;horizontal=1;startSize=26;fillColor=none;horizontalStack=0;resizeParent=1;resizeParentMax=0;resizeLast=0;collapsible=1;marginBottom=0;" vertex="1" parent="1">
          <mxGeometry x="330" y="240" width="140" height="130" as="geometry">
            <mxRectangle x="330" y="240" width="70" height="26" as="alternateBounds" />
          </mxGeometry>
        </mxCell>
        <mxCell id="MhKYR01eUImSHX8c-ETG-20" value="n = 0" style="text;strokeColor=none;fillColor=none;align=left;verticalAlign=top;spacingLeft=4;spacingRight=4;overflow=hidden;rotatable=0;points=[[0,0.5],[1,0.5]];portConstraint=eastwest;" vertex="1" parent="MhKYR01eUImSHX8c-ETG-19">
          <mxGeometry y="26" width="140" height="26" as="geometry" />
        </mxCell>
        <mxCell id="MhKYR01eUImSHX8c-ETG-21" value="def f1():" style="text;strokeColor=none;fillColor=none;align=left;verticalAlign=top;spacingLeft=4;spacingRight=4;overflow=hidden;rotatable=0;points=[[0,0.5],[1,0.5]];portConstraint=eastwest;" vertex="1" parent="MhKYR01eUImSHX8c-ETG-19">
          <mxGeometry y="52" width="140" height="26" as="geometry" />
        </mxCell>
        <mxCell id="MhKYR01eUImSHX8c-ETG-35" value="a" style="text;strokeColor=none;fillColor=none;align=left;verticalAlign=top;spacingLeft=4;spacingRight=4;overflow=hidden;rotatable=0;points=[[0,0.5],[1,0.5]];portConstraint=eastwest;" vertex="1" parent="MhKYR01eUImSHX8c-ETG-19">
          <mxGeometry y="78" width="140" height="26" as="geometry" />
        </mxCell>
        <mxCell id="MhKYR01eUImSHX8c-ETG-34" value="b" style="text;strokeColor=none;fillColor=none;align=left;verticalAlign=top;spacingLeft=4;spacingRight=4;overflow=hidden;rotatable=0;points=[[0,0.5],[1,0.5]];portConstraint=eastwest;" vertex="1" parent="MhKYR01eUImSHX8c-ETG-19">
          <mxGeometry y="104" width="140" height="26" as="geometry" />
        </mxCell>
        <mxCell id="MhKYR01eUImSHX8c-ETG-27" value="" style="endArrow=classic;html=1;exitX=0.5;exitY=0;exitDx=0;exitDy=0;entryX=0.5;entryY=1;entryDx=0;entryDy=0;" edge="1" parent="1" source="MhKYR01eUImSHX8c-ETG-19" target="MhKYR01eUImSHX8c-ETG-1">
          <mxGeometry width="50" height="50" relative="1" as="geometry">
            <mxPoint x="390" y="330" as="sourcePoint" />
            <mxPoint x="440" y="280" as="targetPoint" />
          </mxGeometry>
        </mxCell>
        <mxCell id="MhKYR01eUImSHX8c-ETG-12" value="f1( )" style="swimlane;fontStyle=0;childLayout=stackLayout;horizontal=1;startSize=26;fillColor=none;horizontalStack=0;resizeParent=1;resizeParentMax=0;resizeLast=0;collapsible=1;marginBottom=0;" vertex="1" parent="1">
          <mxGeometry x="240" y="390" width="140" height="78" as="geometry" />
        </mxCell>
        <mxCell id="MhKYR01eUImSHX8c-ETG-13" value="j = 1" style="text;strokeColor=none;fillColor=none;align=left;verticalAlign=top;spacingLeft=4;spacingRight=4;overflow=hidden;rotatable=0;points=[[0,0.5],[1,0.5]];portConstraint=eastwest;" vertex="1" parent="MhKYR01eUImSHX8c-ETG-12">
          <mxGeometry y="26" width="140" height="26" as="geometry" />
        </mxCell>
        <mxCell id="MhKYR01eUImSHX8c-ETG-14" value="def f2():" style="text;strokeColor=none;fillColor=none;align=left;verticalAlign=top;spacingLeft=4;spacingRight=4;overflow=hidden;rotatable=0;points=[[0,0.5],[1,0.5]];portConstraint=eastwest;" vertex="1" parent="MhKYR01eUImSHX8c-ETG-12">
          <mxGeometry y="52" width="140" height="26" as="geometry" />
        </mxCell>
        <mxCell id="MhKYR01eUImSHX8c-ETG-16" value="f1( )" style="swimlane;fontStyle=0;childLayout=stackLayout;horizontal=1;startSize=26;fillColor=none;horizontalStack=0;resizeParent=1;resizeParentMax=0;resizeLast=0;collapsible=1;marginBottom=0;" vertex="1" parent="1">
          <mxGeometry x="420" y="390" width="140" height="78" as="geometry" />
        </mxCell>
        <mxCell id="MhKYR01eUImSHX8c-ETG-17" value="j = 2" style="text;strokeColor=none;fillColor=none;align=left;verticalAlign=top;spacingLeft=4;spacingRight=4;overflow=hidden;rotatable=0;points=[[0,0.5],[1,0.5]];portConstraint=eastwest;" vertex="1" parent="MhKYR01eUImSHX8c-ETG-16">
          <mxGeometry y="26" width="140" height="26" as="geometry" />
        </mxCell>
        <mxCell id="MhKYR01eUImSHX8c-ETG-18" value="def f2():" style="text;strokeColor=none;fillColor=none;align=left;verticalAlign=top;spacingLeft=4;spacingRight=4;overflow=hidden;rotatable=0;points=[[0,0.5],[1,0.5]];portConstraint=eastwest;" vertex="1" parent="MhKYR01eUImSHX8c-ETG-16">
          <mxGeometry y="52" width="140" height="26" as="geometry" />
        </mxCell>
        <mxCell id="MhKYR01eUImSHX8c-ETG-22" value="a()" style="swimlane;fontStyle=0;childLayout=stackLayout;horizontal=1;startSize=26;fillColor=none;horizontalStack=0;resizeParent=1;resizeParentMax=0;resizeLast=0;collapsible=1;marginBottom=0;" vertex="1" parent="1">
          <mxGeometry x="240" y="500" width="140" height="52" as="geometry" />
        </mxCell>
        <mxCell id="MhKYR01eUImSHX8c-ETG-23" value="k = 1" style="text;strokeColor=none;fillColor=none;align=left;verticalAlign=top;spacingLeft=4;spacingRight=4;overflow=hidden;rotatable=0;points=[[0,0.5],[1,0.5]];portConstraint=eastwest;" vertex="1" parent="MhKYR01eUImSHX8c-ETG-22">
          <mxGeometry y="26" width="140" height="26" as="geometry" />
        </mxCell>
        <mxCell id="MhKYR01eUImSHX8c-ETG-25" value="b()" style="swimlane;fontStyle=0;childLayout=stackLayout;horizontal=1;startSize=26;fillColor=none;horizontalStack=0;resizeParent=1;resizeParentMax=0;resizeLast=0;collapsible=1;marginBottom=0;" vertex="1" parent="1">
          <mxGeometry x="420" y="500" width="140" height="52" as="geometry" />
        </mxCell>
        <mxCell id="MhKYR01eUImSHX8c-ETG-26" value="k = 2" style="text;strokeColor=none;fillColor=none;align=left;verticalAlign=top;spacingLeft=4;spacingRight=4;overflow=hidden;rotatable=0;points=[[0,0.5],[1,0.5]];portConstraint=eastwest;" vertex="1" parent="MhKYR01eUImSHX8c-ETG-25">
          <mxGeometry y="26" width="140" height="26" as="geometry" />
        </mxCell>
        <mxCell id="MhKYR01eUImSHX8c-ETG-36" value="" style="endArrow=classic;html=1;exitX=0.5;exitY=0;exitDx=0;exitDy=0;entryX=0.471;entryY=1.038;entryDx=0;entryDy=0;entryPerimeter=0;" edge="1" parent="1" source="MhKYR01eUImSHX8c-ETG-12" target="MhKYR01eUImSHX8c-ETG-34">
          <mxGeometry width="50" height="50" relative="1" as="geometry">
            <mxPoint x="390" y="330" as="sourcePoint" />
            <mxPoint x="440" y="280" as="targetPoint" />
          </mxGeometry>
        </mxCell>
        <mxCell id="MhKYR01eUImSHX8c-ETG-37" value="" style="endArrow=classic;html=1;entryX=0.457;entryY=1.077;entryDx=0;entryDy=0;entryPerimeter=0;exitX=0.5;exitY=0;exitDx=0;exitDy=0;" edge="1" parent="1" source="MhKYR01eUImSHX8c-ETG-16" target="MhKYR01eUImSHX8c-ETG-34">
          <mxGeometry width="50" height="50" relative="1" as="geometry">
            <mxPoint x="390" y="330" as="sourcePoint" />
            <mxPoint x="440" y="280" as="targetPoint" />
          </mxGeometry>
        </mxCell>
        <mxCell id="MhKYR01eUImSHX8c-ETG-38" value="" style="endArrow=classic;html=1;exitX=0.5;exitY=0;exitDx=0;exitDy=0;" edge="1" parent="1" source="MhKYR01eUImSHX8c-ETG-22">
          <mxGeometry width="50" height="50" relative="1" as="geometry">
            <mxPoint x="390" y="330" as="sourcePoint" />
            <mxPoint x="308" y="469" as="targetPoint" />
          </mxGeometry>
        </mxCell>
        <mxCell id="MhKYR01eUImSHX8c-ETG-39" value="" style="endArrow=classic;html=1;exitX=0.5;exitY=0;exitDx=0;exitDy=0;entryX=0.507;entryY=1.115;entryDx=0;entryDy=0;entryPerimeter=0;" edge="1" parent="1" source="MhKYR01eUImSHX8c-ETG-25" target="MhKYR01eUImSHX8c-ETG-18">
          <mxGeometry width="50" height="50" relative="1" as="geometry">
            <mxPoint x="390" y="330" as="sourcePoint" />
            <mxPoint x="440" y="280" as="targetPoint" />
          </mxGeometry>
        </mxCell>
      </root>
    </mxGraphModel>
  </diagram>
</mxfile>
